<svg xmlns="http://www.w3.org/2000/svg" width="64" height="64" viewBox="0 0 64 64">
  <g id="call" transform="translate(0)">
    <g id="Group_5" data-name="Group 5" transform="translate(0 0)">
      <g id="Group_4" data-name="Group 4">
        <path id="Path_1" data-name="Path 1" d="M62.756,50.89l-7.1-4.73-6.307-4.2a2.794,2.794,0,0,0-3.752.609l-3.9,5.017a2.78,2.78,0,0,1-3.549.736c-2.648-1.473-5.78-2.86-12.689-9.779S17.155,28.5,15.682,25.85a2.779,2.779,0,0,1,.736-3.549l5.017-3.9a2.794,2.794,0,0,0,.609-3.752L17.97,8.534,13.11,1.244A2.794,2.794,0,0,0,9.349.4L3.744,3.76A6.847,6.847,0,0,0,.635,7.785C-.9,13.372-1.207,25.7,18.548,45.454S50.628,64.9,56.216,63.366a6.846,6.846,0,0,0,4.024-3.109l3.362-5.6A2.794,2.794,0,0,0,62.756,50.89Z" transform="translate(0 0)" fill="#6dda5f"/>
      </g>
    </g>
  </g>
</svg>
