<svg xmlns="http://www.w3.org/2000/svg" width="64" height="64.308" viewBox="0 0 64 64.308">
  <path id="whatsapp_2_" data-name="whatsapp (2)" d="M54.925,9.345A31.874,31.874,0,0,0,4.771,47.8L.25,64.308l16.893-4.431a31.832,31.832,0,0,0,15.228,3.879h.013A31.88,31.88,0,0,0,54.925,9.346ZM32.384,58.373h-.011a26.453,26.453,0,0,1-13.481-3.692l-.967-.574L7.9,56.737l2.676-9.774-.63-1A26.486,26.486,0,1,1,32.384,58.374ZM46.912,38.537c-.8-.4-4.711-2.324-5.441-2.591s-1.261-.4-1.791.4-2.057,2.591-2.521,3.122-.929.6-1.725.2a21.748,21.748,0,0,1-6.4-3.952A24.017,24.017,0,0,1,24.6,30.2c-.464-.8,0-1.187.349-1.625a22.523,22.523,0,0,0,1.99-2.724,1.464,1.464,0,0,0-.067-1.395c-.2-.4-1.791-4.318-2.454-5.912-.647-1.552-1.3-1.342-1.792-1.367-.464-.023-.995-.028-1.526-.028a2.924,2.924,0,0,0-2.123,1,8.93,8.93,0,0,0-2.786,6.642c0,3.919,2.853,7.705,3.251,8.237s5.615,8.574,13.6,12.022a45.576,45.576,0,0,0,4.539,1.678,10.915,10.915,0,0,0,5.015.316c1.53-.229,4.71-1.926,5.375-3.786a6.653,6.653,0,0,0,.464-3.786c-.2-.332-.73-.531-1.526-.93Zm0,0" transform="translate(-0.25)" fill="#6dda5f" fill-rule="evenodd"/>
</svg>
